<svg xmlns="http://www.w3.org/2000/svg" width="2032" height="704" viewBox="0 0 2032 704">
<g fill-rule="evenodd">
<path d="M 1394 332 L 1393 354 L 1397 358 L 1405 356 L 1445 356 L 1468 358 L 1470 355 L 1467 346 L 1467 337 L 1462 323 L 1443 314 L 1415 314 L 1402 322 Z M 1398 352 L 1400 348 L 1404 347 L 1406 328 L 1409 326 L 1446 325 L 1458 337 L 1458 351 L 1454 354 L 1401 354 Z" fill="#FF4D22"/>
<path d="M 1837 291 L 1832 298 L 1826 300 L 1825 303 L 1819 308 L 1818 312 L 1810 319 L 1810 424 L 1817 430 L 1818 439 L 1822 444 L 1833 447 L 1839 453 L 1849 454 L 1855 461 L 1930 460 L 1932 456 L 1941 448 L 1940 422 L 1935 418 L 1871 417 L 1867 411 L 1862 409 L 1861 393 L 1853 383 L 1853 360 L 1861 350 L 1861 336 L 1865 333 L 1873 331 L 1876 327 L 1880 325 L 1930 324 L 1932 320 L 1941 312 L 1940 286 L 1935 282 L 1859 282 L 1855 283 L 1851 288 L 1847 290 Z M 1849 294 L 1868 294 L 1876 290 L 1922 290 L 1926 292 L 1930 297 L 1930 319 L 1928 321 L 1921 323 L 1888 323 L 1865 321 L 1858 326 L 1849 339 L 1851 370 L 1849 392 L 1850 408 L 1861 421 L 1926 423 L 1930 428 L 1931 435 L 1928 449 L 1924 452 L 1869 452 L 1859 449 L 1850 450 L 1835 441 L 1830 434 L 1822 427 L 1821 420 L 1814 410 L 1813 403 L 1814 335 L 1821 325 L 1823 315 L 1829 310 L 1834 303 L 1842 300 Z" fill="#FF4D22"/>
<path d="M 1354 320 L 1354 424 L 1362 431 L 1363 435 L 1369 440 L 1371 445 L 1377 447 L 1383 453 L 1393 454 L 1399 461 L 1489 460 L 1493 454 L 1493 425 L 1489 419 L 1422 417 L 1417 418 L 1412 414 L 1411 411 L 1406 409 L 1405 398 L 1408 396 L 1412 398 L 1486 397 L 1492 391 L 1498 388 L 1500 384 L 1511 375 L 1514 377 L 1514 416 L 1522 424 L 1521 431 L 1523 442 L 1526 443 L 1535 453 L 1543 453 L 1551 461 L 1613 461 L 1617 459 L 1620 453 L 1623 451 L 1626 453 L 1627 457 L 1632 461 L 1669 461 L 1675 457 L 1677 452 L 1677 336 L 1681 333 L 1683 334 L 1689 331 L 1692 327 L 1696 325 L 1728 325 L 1735 317 L 1738 319 L 1738 457 L 1742 463 L 1751 469 L 1783 469 L 1788 465 L 1789 462 L 1789 297 L 1788 294 L 1783 290 L 1751 290 L 1741 300 L 1735 298 L 1735 290 L 1733 286 L 1727 282 L 1671 282 L 1663 290 L 1658 289 L 1647 291 L 1641 298 L 1634 303 L 1633 311 L 1627 316 L 1626 319 L 1626 423 L 1623 425 L 1616 418 L 1577 418 L 1572 414 L 1571 411 L 1566 408 L 1565 328 L 1569 325 L 1575 326 L 1618 324 L 1621 318 L 1621 289 L 1620 286 L 1615 282 L 1567 281 L 1565 279 L 1565 249 L 1564 246 L 1559 242 L 1535 242 L 1528 249 L 1520 250 L 1515 254 L 1514 321 L 1511 323 L 1508 321 L 1508 318 L 1501 312 L 1499 307 L 1494 303 L 1493 300 L 1486 295 L 1485 291 L 1479 290 L 1472 282 L 1391 282 L 1385 289 L 1375 291 L 1364 302 L 1361 313 L 1356 316 Z M 1756 301 L 1780 302 L 1786 306 L 1786 453 L 1783 458 L 1777 460 L 1758 461 L 1753 459 L 1750 454 L 1750 306 L 1752 303 Z M 1727 292 L 1730 296 L 1730 307 L 1727 316 L 1722 321 L 1709 323 L 1681 321 L 1678 322 L 1667 334 L 1665 343 L 1666 443 L 1664 448 L 1658 453 L 1641 452 L 1634 449 L 1630 445 L 1630 333 L 1637 323 L 1638 315 L 1645 310 L 1650 303 L 1655 301 L 1660 295 L 1664 293 L 1684 294 L 1693 290 Z M 1389 294 L 1400 293 L 1409 286 L 1454 286 L 1463 293 L 1473 294 L 1477 296 L 1480 300 L 1488 305 L 1490 310 L 1496 316 L 1497 329 L 1501 341 L 1501 362 L 1498 368 L 1496 381 L 1490 385 L 1396 385 L 1393 388 L 1394 409 L 1404 422 L 1414 421 L 1487 423 L 1490 428 L 1489 443 L 1485 447 L 1466 457 L 1429 457 L 1420 452 L 1410 452 L 1403 449 L 1395 450 L 1386 443 L 1378 440 L 1367 427 L 1365 415 L 1358 406 L 1358 337 L 1365 329 L 1367 315 L 1373 310 L 1378 303 L 1381 302 Z M 1530 253 L 1540 254 L 1546 251 L 1553 251 L 1560 256 L 1560 291 L 1563 294 L 1613 294 L 1618 298 L 1618 304 L 1614 310 L 1613 315 L 1606 322 L 1573 323 L 1566 321 L 1560 324 L 1560 330 L 1562 333 L 1561 418 L 1565 422 L 1581 422 L 1587 427 L 1601 426 L 1610 429 L 1614 433 L 1614 435 L 1610 442 L 1608 453 L 1603 457 L 1584 457 L 1573 452 L 1566 453 L 1555 449 L 1548 450 L 1544 448 L 1542 444 L 1534 437 L 1533 434 L 1525 427 L 1526 257 Z" fill="#FF4D22"/>
<path d="M 1755 228 L 1746 239 L 1747 266 L 1751 268 L 1759 277 L 1777 277 L 1782 275 L 1796 262 L 1796 238 L 1792 236 L 1783 226 L 1759 226 Z M 1767 230 L 1772 231 L 1778 237 L 1783 239 L 1786 247 L 1786 257 L 1784 262 L 1778 266 L 1769 268 L 1760 265 L 1749 253 L 1750 244 Z" fill="#FF4D22"/>
<path d="M 1296 226 L 1291 230 L 1290 233 L 1290 454 L 1291 457 L 1296 461 L 1335 461 L 1340 457 L 1341 454 L 1341 233 L 1340 230 L 1335 226 Z M 1312 229 L 1322 229 L 1326 231 L 1329 235 L 1331 243 L 1331 444 L 1327 453 L 1323 456 L 1307 456 L 1298 449 L 1295 443 L 1295 244 L 1301 232 Z" fill="#FF4D22"/>
<path d="M 1118 227 L 1114 233 L 1115 457 L 1120 461 L 1266 460 L 1268 456 L 1277 448 L 1277 425 L 1275 421 L 1271 418 L 1159 417 L 1157 415 L 1157 368 L 1161 365 L 1256 365 L 1269 352 L 1268 318 L 1263 314 L 1161 314 L 1157 311 L 1157 272 L 1161 269 L 1167 270 L 1266 268 L 1277 256 L 1276 230 L 1271 226 Z M 1120 231 L 1262 230 L 1269 236 L 1269 242 L 1265 252 L 1266 262 L 1262 266 L 1165 267 L 1156 265 L 1153 268 L 1155 277 L 1153 317 L 1154 325 L 1249 325 L 1258 327 L 1263 331 L 1263 335 L 1258 342 L 1256 353 L 1249 357 L 1165 357 L 1161 355 L 1156 356 L 1154 358 L 1155 410 L 1153 419 L 1156 422 L 1165 420 L 1265 421 L 1271 425 L 1271 429 L 1267 435 L 1265 452 L 1262 456 L 1122 457 L 1118 454 L 1116 441 L 1116 246 L 1117 235 Z" fill="#FF4D22"/>
<path d="M 895 226 L 889 233 L 879 234 L 871 243 L 867 245 L 863 251 L 860 252 L 858 255 L 858 263 L 855 267 L 852 268 L 850 272 L 850 319 L 852 323 L 855 324 L 858 328 L 858 336 L 867 344 L 869 348 L 875 351 L 879 356 L 890 358 L 896 357 L 903 364 L 907 365 L 944 365 L 951 372 L 961 374 L 966 373 L 970 376 L 969 380 L 971 382 L 971 386 L 977 390 L 977 393 L 972 398 L 970 407 L 968 409 L 958 411 L 951 418 L 946 417 L 861 419 L 859 423 L 850 431 L 851 457 L 856 461 L 975 461 L 978 460 L 984 454 L 998 453 L 1006 445 L 1011 443 L 1014 437 L 1015 430 L 1021 424 L 1020 351 L 1015 347 L 1012 341 L 1004 335 L 1002 331 L 992 330 L 988 328 L 984 323 L 957 321 L 952 322 L 944 314 L 919 314 L 911 312 L 908 307 L 902 304 L 901 280 L 905 277 L 907 278 L 913 275 L 916 271 L 920 269 L 1007 269 L 1012 265 L 1013 262 L 1013 244 L 1015 234 L 1013 230 L 1007 226 Z M 1007 231 L 1010 237 L 1010 250 L 998 264 L 921 266 L 907 265 L 904 266 L 897 275 L 892 287 L 892 296 L 898 311 L 905 317 L 916 318 L 926 324 L 936 326 L 953 325 L 964 328 L 972 333 L 986 334 L 992 340 L 999 343 L 1008 353 L 1011 361 L 1015 365 L 1019 380 L 1018 410 L 1011 420 L 1009 429 L 1004 432 L 997 440 L 990 443 L 987 448 L 983 450 L 969 450 L 954 457 L 865 456 L 862 453 L 860 447 L 862 438 L 861 424 L 863 422 L 870 420 L 882 422 L 969 421 L 981 409 L 982 406 L 982 380 L 981 377 L 972 368 L 963 362 L 942 362 L 926 358 L 916 353 L 896 353 L 888 346 L 877 343 L 861 324 L 862 316 L 859 306 L 858 285 L 862 275 L 862 264 L 876 248 L 885 244 L 889 239 L 901 238 L 913 231 Z" fill="#FF4D22"/>
<path d="M 614 227 L 610 233 L 611 457 L 616 461 L 655 461 L 660 457 L 661 335 L 664 333 L 674 343 L 676 348 L 681 352 L 683 362 L 689 366 L 691 377 L 697 382 L 698 391 L 704 397 L 746 396 L 748 392 L 757 384 L 757 376 L 760 372 L 764 370 L 766 360 L 773 352 L 774 344 L 779 342 L 781 336 L 785 336 L 787 457 L 792 461 L 833 460 L 837 454 L 836 230 L 831 226 L 789 227 L 787 231 L 778 239 L 777 249 L 771 253 L 769 263 L 762 271 L 761 279 L 755 284 L 753 290 L 747 295 L 746 304 L 739 311 L 738 320 L 731 327 L 730 334 L 727 336 L 724 334 L 723 330 L 718 327 L 717 319 L 711 313 L 708 301 L 702 297 L 700 286 L 693 280 L 692 271 L 687 267 L 684 260 L 678 255 L 677 247 L 670 241 L 669 232 L 665 227 Z M 626 231 L 651 230 L 665 242 L 666 249 L 671 254 L 675 265 L 680 271 L 682 279 L 688 284 L 690 293 L 696 298 L 699 309 L 705 314 L 707 322 L 713 329 L 715 336 L 720 341 L 722 350 L 726 353 L 730 352 L 733 349 L 734 340 L 741 334 L 743 325 L 748 321 L 750 317 L 751 309 L 757 303 L 759 296 L 765 288 L 766 281 L 772 274 L 774 265 L 781 258 L 782 250 L 788 245 L 791 235 L 798 230 L 822 230 L 827 232 L 831 236 L 833 241 L 833 446 L 829 454 L 822 457 L 806 458 L 800 454 L 798 449 L 798 295 L 796 292 L 793 294 L 792 298 L 786 305 L 784 314 L 779 318 L 776 328 L 770 335 L 768 344 L 762 351 L 760 359 L 754 364 L 753 373 L 747 378 L 743 390 L 737 394 L 723 395 L 713 393 L 709 385 L 703 380 L 701 370 L 695 366 L 693 356 L 687 351 L 685 343 L 679 335 L 676 326 L 671 322 L 669 313 L 663 307 L 662 299 L 660 297 L 656 297 L 655 308 L 657 314 L 657 446 L 655 451 L 651 455 L 646 457 L 630 458 L 624 454 L 622 449 L 622 239 Z" fill="#FF4D22"/>
<path d="M 358 138 L 339 138 L 334 140 L 330 145 L 327 146 L 320 154 L 315 157 L 314 160 L 306 168 L 305 177 L 291 189 L 288 195 L 283 199 L 282 207 L 272 216 L 263 210 L 260 205 L 255 202 L 251 196 L 245 192 L 245 186 L 239 181 L 236 173 L 231 170 L 228 165 L 221 160 L 220 156 L 214 151 L 213 147 L 207 146 L 200 138 L 176 138 L 170 144 L 170 295 L 166 298 L 159 298 L 146 311 L 147 394 L 154 399 L 155 406 L 161 411 L 165 419 L 173 423 L 176 427 L 188 430 L 198 437 L 216 437 L 221 439 L 228 445 L 248 445 L 254 447 L 262 453 L 287 453 L 295 461 L 319 461 L 327 469 L 336 469 L 343 461 L 346 463 L 346 471 L 343 475 L 339 477 L 336 485 L 331 488 L 325 496 L 319 498 L 304 513 L 295 514 L 287 522 L 282 521 L 267 524 L 261 521 L 256 522 L 248 514 L 240 514 L 232 506 L 225 506 L 215 498 L 211 492 L 207 490 L 204 485 L 199 482 L 195 476 L 189 471 L 189 455 L 182 449 L 181 440 L 177 435 L 167 434 L 159 427 L 153 427 L 148 431 L 146 438 L 146 471 L 148 475 L 151 476 L 154 480 L 154 493 L 156 497 L 161 501 L 163 506 L 168 509 L 171 514 L 176 517 L 179 522 L 184 525 L 187 530 L 191 532 L 199 541 L 207 541 L 215 549 L 223 549 L 231 557 L 239 557 L 247 565 L 256 565 L 260 568 L 261 571 L 265 573 L 270 573 L 274 571 L 275 568 L 279 565 L 292 565 L 297 563 L 300 559 L 304 557 L 312 557 L 318 550 L 327 549 L 333 542 L 339 539 L 342 534 L 351 533 L 356 527 L 363 523 L 365 519 L 373 512 L 374 502 L 380 498 L 383 489 L 387 486 L 389 482 L 389 464 L 397 455 L 397 424 L 389 415 L 389 407 L 381 399 L 381 391 L 368 378 L 363 376 L 358 371 L 344 370 L 334 362 L 312 362 L 304 354 L 280 354 L 276 352 L 273 348 L 265 345 L 265 343 L 270 340 L 368 340 L 385 332 L 395 316 L 395 307 L 392 302 L 384 298 L 376 298 L 372 295 L 373 158 L 371 151 L 367 148 L 364 142 Z M 181 344 L 185 341 L 191 341 L 194 343 L 195 369 L 200 373 L 209 374 L 215 381 L 239 381 L 247 389 L 271 389 L 279 397 L 303 397 L 312 404 L 322 406 L 327 405 L 337 413 L 344 414 L 346 416 L 345 422 L 347 426 L 354 432 L 354 447 L 351 449 L 349 448 L 348 445 L 341 440 L 341 432 L 336 426 L 328 426 L 319 419 L 296 418 L 288 412 L 282 410 L 263 410 L 249 402 L 224 402 L 216 394 L 209 394 L 205 392 L 202 388 L 191 380 L 189 375 L 188 364 L 182 358 Z M 330 223 L 330 295 L 328 297 L 216 298 L 213 296 L 214 224 L 218 224 L 220 228 L 226 231 L 227 237 L 232 242 L 235 250 L 240 253 L 244 259 L 250 263 L 250 270 L 256 274 L 260 282 L 264 285 L 272 285 L 277 278 L 283 275 L 284 272 L 291 267 L 294 261 L 300 256 L 302 246 L 307 243 L 311 237 L 315 235 L 318 229 L 327 221 Z" fill="#FF4D22"/>
<path d="M 96 90 L 91 94 L 90 97 L 90 488 L 98 496 L 98 512 L 105 518 L 106 528 L 108 531 L 111 532 L 115 538 L 122 543 L 123 548 L 128 552 L 130 557 L 135 559 L 138 564 L 144 565 L 148 571 L 152 573 L 159 581 L 164 583 L 169 589 L 177 590 L 183 597 L 193 598 L 199 605 L 209 606 L 215 613 L 225 614 L 231 621 L 247 621 L 255 629 L 284 629 L 296 621 L 304 621 L 312 613 L 317 614 L 323 612 L 328 607 L 338 604 L 342 599 L 352 597 L 360 590 L 368 589 L 383 574 L 391 573 L 399 565 L 403 563 L 404 560 L 411 555 L 413 551 L 420 545 L 422 536 L 427 532 L 429 527 L 436 521 L 437 511 L 444 501 L 445 479 L 453 464 L 452 94 L 447 90 Z M 129 125 L 406 125 L 410 128 L 410 471 L 407 475 L 404 476 L 402 480 L 402 495 L 399 499 L 395 501 L 393 511 L 388 515 L 386 520 L 380 524 L 378 528 L 372 532 L 369 537 L 362 538 L 357 544 L 351 546 L 336 561 L 327 562 L 319 570 L 311 570 L 303 578 L 289 578 L 279 586 L 256 586 L 248 578 L 237 577 L 230 571 L 219 568 L 214 562 L 206 561 L 200 554 L 193 554 L 183 546 L 179 540 L 176 539 L 171 532 L 167 530 L 157 520 L 156 517 L 151 514 L 147 508 L 141 503 L 142 497 L 139 492 L 136 491 L 133 487 L 133 465 L 131 459 L 127 455 L 125 448 L 125 128 Z" fill="#FF4D22"/>
<path d="M 1006 446 Z" fill="#E9E9E9"/>
<path d="M 962 409 L 959 410 Z" fill="#E9E9E9"/>
<path d="M 970 401 Z" fill="#E9E9E9"/>
<path d="M 1408 397 L 1405 397 L 1406 400 L 1406 398 Z" fill="#E9E9E9"/>
<path d="M 969 381 L 970 384 Z" fill="#E9E9E9"/>
<path d="M 690 375 Z" fill="#E9E9E9"/>
<path d="M 959 374 Z" fill="#E9E9E9"/>
<path d="M 953 373 Z" fill="#E9E9E9"/>
<path d="M 905 365 Z" fill="#E9E9E9"/>
<path d="M 881 357 Z" fill="#E9E9E9"/>
<path d="M 1405 343 L 1404 346 Z" fill="#E9E9E9"/>
<path d="M 1872 332 L 1868 334 Z" fill="#E9E9E9"/>
<path d="M 1688 332 L 1684 334 Z" fill="#E9E9E9"/>
<path d="M 730 329 Z" fill="#E9E9E9"/>
<path d="M 981 322 Z" fill="#E9E9E9"/>
<path d="M 1167 313 Z" fill="#E9E9E9"/>
<path d="M 1633 306 Z" fill="#E9E9E9"/>
<path d="M 1362 305 Z" fill="#E9E9E9"/>
<path d="M 1756 302 L 1753 303 L 1751 306 L 1751 454 L 1754 459 L 1758 460 L 1777 459 L 1783 457 L 1785 453 L 1785 306 L 1780 303 Z" fill="#E9E9E9"/>
<path d="M 1741 299 Z" fill="#E9E9E9"/>
<path d="M 746 297 Z" fill="#E9E9E9"/>
<path d="M 1370 296 Z" fill="#E9E9E9"/>
<path d="M 1849 295 L 1842 301 L 1834 304 L 1830 310 L 1824 315 L 1822 325 L 1816 332 L 1814 340 L 1814 403 L 1815 410 L 1822 420 L 1823 427 L 1831 434 L 1835 440 L 1850 449 L 1859 448 L 1869 451 L 1925 451 L 1928 446 L 1930 435 L 1929 428 L 1925 423 L 1862 422 L 1849 408 L 1848 392 L 1850 370 L 1848 339 L 1857 326 L 1865 320 L 1888 322 L 1927 321 L 1929 319 L 1929 297 L 1925 292 L 1922 291 L 1876 291 L 1868 295 Z" fill="#E9E9E9"/>
<path d="M 1726 292 L 1693 291 L 1684 295 L 1664 294 L 1660 296 L 1655 302 L 1651 303 L 1646 310 L 1639 315 L 1638 323 L 1631 333 L 1631 445 L 1634 448 L 1641 451 L 1658 452 L 1661 451 L 1665 443 L 1664 343 L 1666 334 L 1677 322 L 1681 320 L 1708 322 L 1722 320 L 1726 316 L 1729 307 L 1729 296 Z" fill="#E9E9E9"/>
<path d="M 701 287 Z" fill="#E9E9E9"/>
<path d="M 1389 295 L 1382 302 L 1379 303 L 1374 310 L 1368 315 L 1366 329 L 1359 337 L 1357 384 L 1359 394 L 1359 406 L 1366 415 L 1368 427 L 1378 439 L 1386 442 L 1392 448 L 1395 449 L 1403 448 L 1410 451 L 1420 451 L 1429 456 L 1466 456 L 1473 453 L 1488 443 L 1489 428 L 1486 423 L 1404 423 L 1401 421 L 1398 414 L 1393 409 L 1392 388 L 1396 384 L 1407 385 L 1493 383 L 1495 381 L 1497 368 L 1500 362 L 1500 341 L 1497 334 L 1495 316 L 1489 310 L 1487 305 L 1480 301 L 1476 296 L 1463 294 L 1454 287 L 1409 287 L 1400 294 Z M 1393 332 L 1402 321 L 1415 313 L 1443 313 L 1452 318 L 1458 319 L 1463 323 L 1468 337 L 1468 346 L 1471 355 L 1467 359 L 1445 357 L 1405 357 L 1397 359 L 1392 354 Z" fill="#E9E9E9"/>
<path d="M 1857 282 Z" fill="#E9E9E9"/>
<path d="M 1575 281 Z" fill="#E9E9E9"/>
<path d="M 912 276 L 908 278 Z" fill="#E9E9E9"/>
<path d="M 1530 254 L 1527 257 L 1526 427 L 1534 434 L 1535 437 L 1543 444 L 1544 447 L 1548 449 L 1555 448 L 1566 452 L 1573 451 L 1584 456 L 1604 456 L 1607 453 L 1608 445 L 1613 435 L 1613 433 L 1610 430 L 1601 427 L 1588 428 L 1581 423 L 1565 423 L 1560 418 L 1561 333 L 1559 330 L 1559 324 L 1566 320 L 1573 322 L 1607 321 L 1611 317 L 1613 310 L 1617 304 L 1617 298 L 1613 295 L 1562 294 L 1559 291 L 1559 256 L 1554 252 L 1546 252 L 1540 255 Z" fill="#E9E9E9"/>
<path d="M 1797 240 Z" fill="#E9E9E9"/>
<path d="M 1767 231 L 1751 244 L 1750 253 L 1761 265 L 1769 267 L 1781 264 L 1783 262 L 1785 257 L 1785 247 L 1783 240 L 1777 237 L 1772 232 Z" fill="#E9E9E9"/>
<path d="M 1120 232 L 1118 235 L 1117 246 L 1117 441 L 1119 454 L 1122 456 L 1262 455 L 1264 452 L 1265 438 L 1270 429 L 1270 425 L 1265 422 L 1165 421 L 1157 423 L 1152 419 L 1154 410 L 1153 358 L 1156 355 L 1161 354 L 1165 356 L 1249 356 L 1255 353 L 1257 342 L 1262 335 L 1262 331 L 1260 329 L 1249 326 L 1154 326 L 1152 323 L 1154 301 L 1154 277 L 1152 268 L 1157 264 L 1165 266 L 1263 265 L 1265 262 L 1264 252 L 1269 237 L 1265 232 L 1262 231 Z" fill="#E9E9E9"/>
<path d="M 1007 232 L 913 232 L 901 239 L 890 239 L 885 245 L 877 248 L 863 264 L 863 275 L 859 285 L 860 306 L 863 316 L 862 324 L 877 342 L 889 346 L 895 352 L 916 352 L 926 357 L 942 361 L 963 361 L 972 367 L 982 377 L 983 380 L 982 409 L 970 421 L 966 423 L 882 423 L 870 421 L 864 422 L 862 424 L 863 438 L 861 447 L 863 453 L 866 456 L 954 456 L 969 449 L 983 449 L 987 447 L 990 442 L 996 440 L 1004 431 L 1008 429 L 1010 420 L 1017 410 L 1018 380 L 1015 367 L 1010 361 L 1007 353 L 1001 346 L 992 341 L 987 335 L 972 334 L 964 329 L 953 326 L 936 327 L 926 325 L 916 319 L 905 318 L 897 311 L 891 296 L 891 287 L 896 275 L 901 268 L 907 264 L 921 265 L 998 263 L 1009 250 L 1009 237 Z" fill="#E9E9E9"/>
<path d="M 627 231 L 623 239 L 623 449 L 625 454 L 630 457 L 646 456 L 651 454 L 656 446 L 657 322 L 654 308 L 655 297 L 659 296 L 663 299 L 664 307 L 670 313 L 672 322 L 677 326 L 680 335 L 686 343 L 688 351 L 694 356 L 696 366 L 702 370 L 704 380 L 710 385 L 714 393 L 723 394 L 737 393 L 742 390 L 746 378 L 752 373 L 753 364 L 759 359 L 761 351 L 767 344 L 769 335 L 775 328 L 778 318 L 783 314 L 785 305 L 791 298 L 792 294 L 795 292 L 799 295 L 799 449 L 801 454 L 806 457 L 822 456 L 829 453 L 832 446 L 832 241 L 830 236 L 822 231 L 798 231 L 792 235 L 790 243 L 783 250 L 782 258 L 775 265 L 774 272 L 768 279 L 766 288 L 760 296 L 758 303 L 752 309 L 751 317 L 749 321 L 744 325 L 742 334 L 735 340 L 734 349 L 730 353 L 726 354 L 721 350 L 719 341 L 714 336 L 712 329 L 706 322 L 704 314 L 698 309 L 695 298 L 689 293 L 687 284 L 681 279 L 678 269 L 674 265 L 670 254 L 665 249 L 664 242 L 658 238 L 652 231 Z" fill="#E9E9E9"/>
<path d="M 1312 230 L 1301 233 L 1296 244 L 1296 443 L 1299 449 L 1307 455 L 1324 455 L 1330 444 L 1330 243 L 1328 235 L 1325 231 Z" fill="#E9E9E9"/>
</g></svg>