<svg xmlns="http://www.w3.org/2000/svg" viewBox="0 0 360 100" fill="none">
  <!-- Shield -->
  <g transform="translate(8, 5)">
    <!-- Shield outline -->
    <path d="M45 2C45 2 10 2 10 2C6 2 2 6 2 10V55C2 62 6 68 12 74L38 94C42 97 48 97 52 94L78 74C84 68 88 62 88 55V10C88 6 84 2 80 2H45Z" 
          fill="none" stroke="#FF4D22" stroke-width="5" stroke-linejoin="round"/>
    <!-- M letter -->
    <path d="M25 62V32L36 50L45 32V62" 
          fill="none" stroke="#FF4D22" stroke-width="5" stroke-linecap="round" stroke-linejoin="round"/>
    <!-- S letter -->
    <path d="M55 38C55 34 59 30 65 30C71 30 75 34 75 38C75 42 71 46 65 46C59 46 55 50 55 54C55 58 59 62 65 62C71 62 75 58 75 54" 
          fill="none" stroke="#FF4D22" stroke-width="5" stroke-linecap="round" stroke-linejoin="round"/>
  </g>
  <!-- Text: MS Eletric -->
  <text x="115" y="62" font-family="'Segoe UI', Arial, Helvetica, sans-serif" font-size="38" font-weight="600" letter-spacing="1">
    <tspan fill="#E9E9E9">MS Eletric</tspan>
  </text>
</svg>